<?xml version="1.0" standalone="no"?>
<!DOCTYPE svg PUBLIC "-//W3C//DTD SVG 20010904//EN"
 "http://www.w3.org/TR/2001/REC-SVG-20010904/DTD/svg10.dtd">
<svg version="1.0" xmlns="http://www.w3.org/2000/svg"
 width="32.000000pt" height="32.000000pt" viewBox="0 0 32.000000 32.000000"
 preserveAspectRatio="xMidYMid meet">

<g transform="translate(0.000000,32.000000) scale(0.100000,-0.100000)"
fill="white" stroke="none">
<path d="M84 291 c-68 -41 -96 -110 -75 -181 18 -59 111 -131 111 -85 0 8 -9
15 -19 15 -11 0 -27 10 -35 22 -20 28 -12 37 12 15 22 -20 39 -22 45 -4 2 6
-9 17 -24 24 -34 14 -44 46 -32 104 7 31 14 43 24 40 19 -5 121 -5 138 0 11 3
18 -10 24 -44 11 -58 -1 -94 -35 -102 -20 -5 -23 -11 -20 -46 5 -48 19 -50 67
-8 108 95 39 269 -107 269 -24 0 -56 -8 -74 -19z"/>
</g>
</svg>
