<svg xmlns="http://www.w3.org/2000/svg" version="1.0" width="360.000000pt" height="360.000000pt" viewBox="0 0 360.000000 360.000000" preserveAspectRatio="xMidYMid meet">

<g transform="translate(0.000000,360.000000) scale(0.100000,-0.100000)" fill="#7fed2f" stroke="none">
<path d="M2930 2724 l0 -266 -80 -143 c-44 -79 -80 -146 -80 -149 0 -3 17 -14 38 -25 l38 -19 59 106 c32 59 69 126 83 149 19 34 46 57 135 112 62 37 165 101 229 141 65 40 116 75 113 79 -2 4 -22 16 -44 26 l-40 18 -167 -109 c-92 -60 -173 -113 -181 -117 -12 -7 -14 25 -12 204 l2 212 -46 24 -47 23 0 -266z" fill="#7fed2f"/>
<path d="M1252 2919 c-18 -6 -35 -15 -37 -22 -2 -7 -27 -172 -55 -367 -27 -195 -52 -365 -55 -377 -5 -21 -4 -22 38 -7 l42 14 23 163 c26 192 71 488 75 501 3 8 142 -122 409 -383 l87 -84 43 12 43 13 -102 97 c-56 53 -185 176 -286 274 -101 97 -186 177 -188 176 -2 0 -19 -5 -37 -10z" fill="#7fed2f"/>
<path d="M910 2863 c-91 -30 -255 -84 -365 -120 -110 -35 -203 -67 -207 -71 -3 -4 -8 -23 -10 -42 -3 -35 -2 -36 137 -130 77 -53 224 -153 326 -222 173 -118 187 -126 193 -105 13 51 7 61 -77 117 -45 31 -174 118 -286 195 l-204 139 59 19 c32 10 176 56 319 103 143 46 266 84 272 84 11 0 16 11 28 73 2 9 -2 16 -8 16 -7 -1 -86 -26 -177 -56z" fill="#7fed2f"/>
<path d="M270 2531 c0 -8 -47 -353 -99 -724 -8 -57 -7 -57 26 -82 l33 -26 63 38 c35 21 188 110 340 198 152 88 277 162 277 165 0 3 -15 14 -32 26 l-32 20 -295 -172 c-163 -95 -297 -168 -299 -164 -2 5 8 93 23 197 14 103 35 255 46 336 11 82 19 150 17 151 -49 35 -68 45 -68 37z" fill="#7fed2f"/>
<path d="M1795 2215 c-94 -31 -330 -106 -510 -162 -44 -13 -95 -30 -113 -37 l-32 -12 29 -28 30 -29 113 36 c456 143 534 167 544 167 7 0 -1 -34 -21 -92 -44 -124 -94 -266 -148 -420 l-44 -127 29 -27 c15 -15 30 -26 32 -23 3 4 40 107 201 567 l57 163 -28 30 c-15 16 -30 29 -33 28 -3 0 -51 -16 -106 -34z" fill="#7fed2f"/>
<path d="M2491 2195 c-111 -40 -217 -100 -298 -166 -216 -178 -324 -477 -269 -749 10 -47 21 -89 25 -93 5 -4 25 0 45 10 30 14 36 22 32 38 -39 139 -24 331 36 464 86 189 241 328 460 412 69 27 88 38 88 54 0 27 -11 65 -19 65 -3 -1 -48 -16 -100 -35z" fill="#7fed2f"/>
<path d="M2935 1989 l-30 -8 0 -178 c0 -157 -3 -186 -23 -248 -74 -232 -248 -407 -481 -485 l-86 -29 -3 -41 c-3 -36 -1 -40 20 -40 43 1 215 66 284 107 275 164 422 470 384 800 -12 107 -18 133 -28 132 -4 0 -20 -5 -37 -10z" fill="#7fed2f"/>
<path d="M987 1948 c-32 -12 -26 14 -82 -343 -25 -159 -50 -320 -57 -358 -6 -37 -9 -69 -7 -72 3 -2 21 1 41 7 35 11 36 12 48 87 6 42 27 171 45 286 18 116 37 231 40 258 4 26 10 47 13 47 3 0 115 -108 247 -240 l241 -239 37 11 c20 6 37 14 37 17 0 14 -547 551 -560 550 -8 0 -27 -5 -43 -11z" fill="#7fed2f"/>
<path d="M2379 1855 c-30 -16 -63 -73 -58 -99 2 -11 16 -28 30 -39 35 -25 75 -13 107 33 27 40 28 61 5 88 -24 28 -53 34 -84 17z" fill="#7fed2f"/>
<path d="M2629 1675 c-30 -16 -63 -73 -58 -99 2 -11 16 -28 31 -39 23 -18 30 -18 57 -7 32 13 71 65 71 94 0 20 -44 66 -62 66 -7 -1 -24 -7 -39 -15z" fill="#7fed2f"/>
<path d="M1535 1265 c-75 -25 -256 -82 -506 -161 l-157 -49 -6 -40 c-4 -34 -2 -42 16 -55 12 -8 121 -83 243 -167 367 -253 386 -266 389 -262 2 2 6 20 8 40 l3 37 -275 191 c-151 105 -279 192 -285 194 -5 3 -8 6 -5 9 3 2 153 51 335 109 l330 104 6 38 c7 45 3 45 -96 12z" fill="#7fed2f"/>
<path d="M1740 1260 c0 -7 -6 -58 -14 -114 -8 -55 -31 -224 -52 -374 -36 -266 -37 -273 -18 -287 43 -33 56 -29 240 73 98 54 252 138 342 187 89 48 162 91 162 95 0 4 -15 15 -34 25 l-34 18 -228 -125 c-423 -232 -386 -214 -380 -187 3 13 14 94 26 179 11 85 27 202 35 260 8 58 17 132 21 165 7 66 11 59 -58 93 -5 2 -8 -2 -8 -8z" fill="#7fed2f"/>
</g>
</svg>