<?xml version="1.0" standalone="no"?>
<!DOCTYPE svg PUBLIC "-//W3C//DTD SVG 20010904//EN"
 "http://www.w3.org/TR/2001/REC-SVG-20010904/DTD/svg10.dtd">
<svg version="1.0" xmlns="http://www.w3.org/2000/svg"
 width="64.000000pt" height="64.000000pt" viewBox="0 0 64.000000 64.000000"
 preserveAspectRatio="xMidYMid meet">

<g transform="translate(0.000000,64.000000) scale(0.100000,-0.100000)"
fill="white" stroke="none">
<path d="M158 559 c-87 -43 -158 -85 -158 -92 0 -7 25 -25 56 -40 31 -16 53
-31 50 -35 -4 -3 -28 -18 -54 -32 -26 -14 -47 -32 -47 -40 0 -8 21 -26 47 -40
26 -14 50 -29 54 -32 3 -4 -19 -19 -50 -35 -31 -15 -56 -33 -56 -40 0 -7 73
-50 163 -94 l163 -82 154 79 c97 49 156 85 158 96 2 12 -14 26 -55 46 l-58 30
58 28 c33 17 57 35 57 44 0 9 -24 27 -57 44 l-58 28 58 30 c41 20 57 34 55 46
-3 16 -288 171 -313 171 -5 0 -81 -36 -167 -80z m392 -91 c0 -5 -51 -33 -113
-64 l-113 -56 -119 60 -120 59 120 61 120 60 112 -57 c62 -30 113 -59 113 -63z
m-300 -138 c33 -16 66 -30 75 -30 8 0 44 14 79 32 l65 32 40 -19 c23 -10 41
-21 41 -24 0 -4 -52 -32 -115 -64 l-115 -57 -115 57 c-63 32 -115 60 -115 63
0 9 62 39 83 39 10 1 44 -12 77 -29z m145 -147 l76 37 39 -20 c22 -11 40 -24
40 -28 0 -4 -51 -33 -113 -63 l-112 -57 -120 60 -119 60 44 23 44 23 73 -36
73 -36 75 37z"/>
</g>
</svg>
