<?xml version="1.0" standalone="no"?>
<!DOCTYPE svg PUBLIC "-//W3C//DTD SVG 20010904//EN"
 "http://www.w3.org/TR/2001/REC-SVG-20010904/DTD/svg10.dtd">
<svg version="1.0" xmlns="http://www.w3.org/2000/svg"
 width="64.000000pt" height="64.000000pt" viewBox="0 0 64.000000 64.000000"
 preserveAspectRatio="xMidYMid meet">

<g transform="translate(0.000000,64.000000) scale(0.100000,-0.100000)"
fill="white" stroke="none">
<path d="M221 621 c-8 -5 -12 -18 -9 -29 5 -17 1 -21 -21 -24 -26 -3 -26 -4
-26 -83 l0 -80 80 0 80 0 0 35 c0 33 -2 35 -29 32 -19 -2 -27 1 -24 10 3 7 15
13 29 13 21 0 24 5 24 35 0 32 -3 35 -32 38 -23 2 -30 7 -26 18 5 14 -13 44
-26 44 -3 0 -12 -4 -20 -9z m29 -26 c0 -8 -4 -15 -9 -15 -13 0 -22 16 -14 24
11 11 23 6 23 -9z m60 -61 c0 -19 -5 -24 -25 -24 -20 0 -25 -5 -25 -25 0 -24
9 -30 38 -26 7 1 12 -9 12 -24 0 -24 -2 -25 -65 -25 l-65 0 0 74 c0 74 0 75
28 78 15 2 44 1 65 -1 31 -3 37 -7 37 -27z"/>
<path d="M353 524 c-4 -10 1 -22 12 -30 18 -13 18 -15 -3 -37 l-22 -23 29 -28
29 -28 12 22 c9 16 15 19 23 11 8 -8 6 -15 -9 -25 -15 -12 -17 -19 -8 -32 25
-41 40 -40 92 6 27 25 53 51 56 59 7 16 -89 121 -110 121 -6 0 -17 -7 -25 -16
-11 -14 -13 -14 -21 0 -12 21 -47 20 -55 0z m37 -4 c0 -19 30 -23 48 -6 17 15
22 12 67 -34 l49 -50 -46 -47 c-40 -40 -49 -45 -63 -33 -14 12 -14 15 0 30 9
9 13 25 9 34 -8 20 -43 21 -51 1 -5 -14 -8 -14 -24 1 -19 17 -19 18 3 41 l23
24 -23 18 c-13 9 -20 20 -16 24 11 10 24 9 24 -3z"/>
<path d="M14 395 c-6 -16 34 -139 67 -207 10 -20 32 -46 49 -58 27 -19 29 -26
27 -68 l-2 -47 78 -3 77 -3 0 36 c0 22 -6 38 -15 41 -8 4 -15 19 -15 34 0 16
-4 40 -9 54 -12 30 -127 127 -144 121 -7 -3 -24 18 -42 52 -30 58 -60 78 -71
48z m65 -68 c17 -31 31 -64 31 -71 0 -18 59 -81 67 -72 4 3 -8 21 -25 39 -32
33 -41 57 -21 57 16 0 118 -89 123 -108 2 -10 7 -32 11 -50 7 -32 6 -32 -32
-32 -33 0 -48 8 -87 44 -41 37 -53 58 -86 147 -21 57 -36 108 -33 112 7 12 17
0 52 -66z m177 -277 c0 -17 -7 -20 -43 -20 -36 0 -43 3 -43 20 0 17 7 20 43
20 36 0 43 -3 43 -20z m44 10 c0 -5 -2 -10 -4 -10 -3 0 -8 5 -11 10 -3 6 -1
10 4 10 6 0 11 -4 11 -10z"/>
<path d="M576 388 c-8 -13 -22 -40 -32 -61 -11 -22 -23 -36 -31 -33 -17 7
-132 -89 -144 -120 -5 -14 -9 -38 -9 -54 0 -15 -7 -30 -15 -34 -9 -3 -15 -19
-15 -41 l0 -36 78 3 77 3 0 46 c0 39 5 50 36 80 38 36 100 177 102 234 2 38
-26 46 -47 13z m9 -95 c-19 -52 -35 -98 -35 -100 0 -3 -23 -27 -51 -54 -44
-42 -57 -49 -91 -49 -39 0 -40 0 -33 32 4 18 9 40 11 50 5 19 107 108 123 108
20 0 11 -24 -21 -57 -17 -18 -29 -36 -25 -39 8 -9 67 54 67 72 0 11 38 89 67
137 2 4 8 5 13 2 5 -3 -6 -49 -25 -102z m-225 -227 c0 -3 -4 -8 -10 -11 -5 -3
-10 -1 -10 4 0 6 5 11 10 11 6 0 10 -2 10 -4z m110 -16 c0 -17 -7 -20 -43 -20
-36 0 -43 3 -43 20 0 17 7 20 43 20 36 0 43 -3 43 -20z"/>
<path d="M237 374 c-4 -4 -7 -15 -7 -25 0 -11 -9 -19 -22 -21 -15 -2 -24 -11
-26 -25 -3 -22 5 -28 35 -24 6 1 13 -9 15 -21 2 -18 10 -24 37 -26 32 -3 33
-2 27 22 -5 20 -3 26 9 26 11 0 14 -6 9 -25 -6 -23 -4 -25 30 -25 32 0 36 3
36 26 0 19 4 25 15 20 19 -7 46 20 38 40 -4 10 -14 14 -29 11 -19 -3 -24 1
-26 22 -3 25 -6 26 -68 29 -36 2 -69 0 -73 -4z m131 -37 c3 -22 8 -27 24 -25
12 2 23 -3 26 -11 3 -10 -2 -12 -21 -7 -22 5 -26 3 -29 -21 -4 -37 -38 -45
-38 -9 0 29 -11 39 -35 30 -11 -5 -15 -15 -12 -30 3 -18 0 -24 -14 -24 -12 0
-19 9 -21 28 -3 23 -7 27 -32 24 -19 -2 -27 1 -24 10 3 7 15 13 29 13 19 0 25
6 27 28 3 27 5 28 60 25 54 -3 57 -4 60 -31z"/>
</g>
</svg>
