<?xml version="1.0" standalone="no"?>
<!DOCTYPE svg PUBLIC "-//W3C//DTD SVG 20010904//EN"
 "http://www.w3.org/TR/2001/REC-SVG-20010904/DTD/svg10.dtd">
<svg version="1.0" xmlns="http://www.w3.org/2000/svg"
 width="64.000000pt" height="64.000000pt" viewBox="0 0 64.000000 64.000000"
 preserveAspectRatio="xMidYMid meet">

<g transform="translate(0.000000,64.000000) scale(0.100000,-0.100000)"
fill="white" stroke="none">
<path d="M82 543 c-13 -3 -26 -11 -29 -19 -3 -8 -16 -14 -29 -14 l-24 0 0
-211 c0 -197 1 -211 18 -204 65 25 141 33 312 33 148 0 196 -4 242 -18 31 -10
60 -15 63 -12 3 3 5 97 5 209 l0 203 -24 0 c-13 0 -26 6 -29 14 -15 38 -178
28 -237 -14 -30 -21 -30 -21 -57 -2 -50 35 -135 49 -211 35z m155 -34 c15 -6
38 -20 51 -31 21 -20 22 -29 22 -170 0 -81 -2 -148 -4 -148 -2 0 -23 7 -46 15
-23 8 -73 15 -111 15 l-69 0 0 165 0 165 64 0 c36 0 77 -5 93 -11z m323 -154
l0 -165 -69 0 c-38 0 -88 -7 -111 -15 -23 -8 -44 -15 -46 -15 -2 0 -4 68 -4
151 0 133 2 154 18 166 36 30 79 42 145 43 l67 0 0 -165z m-508 -27 l3 -163
75 4 c85 4 89 -5 9 -19 -30 -5 -69 -12 -86 -16 l-33 -6 0 174 c0 96 3 178 7
181 19 19 23 -6 25 -155z m566 -23 l2 -178 -32 7 c-18 4 -57 11 -87 16 -80 14
-76 23 9 19 l75 -4 3 163 c2 124 5 163 15 159 9 -3 13 -52 15 -182z"/>
</g>
</svg>
