<?xml version="1.0" standalone="no"?>
<!DOCTYPE svg PUBLIC "-//W3C//DTD SVG 20010904//EN"
 "http://www.w3.org/TR/2001/REC-SVG-20010904/DTD/svg10.dtd">
<svg version="1.0" xmlns="http://www.w3.org/2000/svg"
 width="64.000000pt" height="64.000000pt" viewBox="0 0 64.000000 64.000000"
 preserveAspectRatio="xMidYMid meet">

<g transform="translate(0.000000,64.000000) scale(0.100000,-0.100000)"
fill="white" stroke="none">
<path d="M180 561 l-135 -78 0 -164 0 -163 138 -79 137 -80 138 79 137 79 3
78 c2 61 0 78 -10 75 -7 -3 -14 -16 -16 -30 -2 -19 -15 -31 -54 -49 -28 -13
-61 -22 -74 -21 -29 4 -52 -32 -33 -54 17 -21 45 -17 66 9 10 13 35 34 56 47
l38 23 -3 -33 c-3 -30 -12 -38 -113 -96 -60 -35 -113 -64 -117 -64 -5 0 -8 33
-8 74 l0 75 53 28 c41 22 53 34 55 56 3 27 6 29 51 31 31 1 50 30 35 54 -16
24 -47 21 -59 -6 -5 -12 -18 -25 -27 -28 -12 -3 -18 -15 -18 -33 0 -21 -8 -32
-39 -49 -21 -12 -41 -22 -45 -22 -3 0 -6 24 -6 53 l0 53 119 62 c114 60 120
62 123 41 2 -13 9 -24 16 -27 10 -3 12 7 10 38 l-3 43 -135 78 c-74 43 -137
79 -140 79 -3 0 -66 -36 -140 -79z m262 -18 l118 -68 -37 -19 c-37 -19 -37
-19 -81 5 -24 12 -48 34 -53 47 -7 18 -15 23 -36 20 -51 -6 -38 -68 14 -68 26
0 83 -26 83 -38 0 -4 -30 -22 -66 -40 l-65 -32 -120 61 -119 62 30 18 c36 22
71 11 89 -28 13 -28 47 -29 64 -1 16 24 -8 48 -49 48 -55 0 -47 16 28 59 40
22 75 40 78 41 2 0 57 -30 122 -67z m-78 -54 c-3 -5 -10 -7 -15 -3 -5 3 -7 10
-3 15 3 5 10 7 15 3 5 -3 7 -10 3 -15z m-124 -9 c0 -5 -4 -10 -10 -10 -5 0
-10 5 -10 10 0 6 5 10 10 10 6 0 10 -4 10 -10z m70 -192 c0 -21 -2 -38 -5 -38
-17 0 -135 74 -135 85 0 8 -9 17 -20 20 -23 7 -50 -10 -50 -31 0 -21 28 -43
48 -37 11 2 51 -12 91 -31 l71 -36 0 -90 c0 -50 -3 -90 -7 -90 -5 0 -57 29
-118 64 -91 53 -111 68 -113 90 -2 14 -1 26 3 26 19 0 94 -46 116 -72 22 -27
28 -29 47 -19 41 22 16 80 -28 66 -13 -4 -40 5 -80 27 l-60 33 0 98 0 98 120
-63 120 -63 0 -37z m200 52 c0 -5 -7 -10 -15 -10 -8 0 -15 5 -15 10 0 6 7 10
15 10 8 0 15 -4 15 -10z m-360 -20 c0 -5 -4 -10 -10 -10 -5 0 -10 5 -10 10 0
6 5 10 10 10 6 0 10 -4 10 -10z m300 -150 c0 -5 -4 -10 -10 -10 -5 0 -10 5
-10 10 0 6 5 10 10 10 6 0 10 -4 10 -10z m-220 -10 c0 -5 -4 -10 -10 -10 -5 0
-10 5 -10 10 0 6 5 10 10 10 6 0 10 -4 10 -10z"/>
<path d="M576 361 c-4 -5 -2 -12 3 -15 5 -4 12 -2 15 3 4 5 2 12 -3 15 -5 4
-12 2 -15 -3z"/>
</g>
</svg>
